<mxfile host="app.diagrams.net" modified="2022-04-22T03:14:16.381Z" agent="5.0 (Windows NT 10.0; Win64; x64) AppleWebKit/537.36 (KHTML, like Gecko) Chrome/100.0.4896.127 Safari/537.36" etag="MMzbi7IhJ6Fcf11Ne7bl" version="17.4.5" type="github">
  <diagram id="pStGfHeFSflCPkoYoJwv" name="第 1 页">
    <mxGraphModel dx="1673" dy="896" grid="1" gridSize="10" guides="1" tooltips="1" connect="1" arrows="1" fold="1" page="1" pageScale="1" pageWidth="2336" pageHeight="1654" math="0" shadow="0">
      <root>
        <mxCell id="0" />
        <mxCell id="1" parent="0" />
        <mxCell id="S2Abmo9_S_xprCspmIsj-2" value="shared_ptr" style="swimlane;fontStyle=1;childLayout=stackLayout;horizontal=1;startSize=26;fillColor=none;horizontalStack=0;resizeParent=1;resizeParentMax=0;resizeLast=0;collapsible=1;marginBottom=0;" parent="1" vertex="1">
          <mxGeometry x="160" y="775" width="140" height="52" as="geometry" />
        </mxCell>
        <mxCell id="S2Abmo9_S_xprCspmIsj-6" value="__shared_ptr" style="swimlane;fontStyle=1;align=center;verticalAlign=top;childLayout=stackLayout;horizontal=1;startSize=26;horizontalStack=0;resizeParent=1;resizeParentMax=0;resizeLast=0;collapsible=1;marginBottom=0;" parent="1" vertex="1">
          <mxGeometry x="120" y="400" width="220" height="294" as="geometry" />
        </mxCell>
        <mxCell id="S2Abmo9_S_xprCspmIsj-7" value="- _M_ptr: element_type*" style="text;strokeColor=none;fillColor=none;align=left;verticalAlign=top;spacingLeft=4;spacingRight=4;overflow=hidden;rotatable=0;points=[[0,0.5],[1,0.5]];portConstraint=eastwest;" parent="S2Abmo9_S_xprCspmIsj-6" vertex="1">
          <mxGeometry y="26" width="220" height="26" as="geometry" />
        </mxCell>
        <mxCell id="S2Abmo9_S_xprCspmIsj-14" value="- _M_refcount: __shared_count" style="text;strokeColor=none;fillColor=none;align=left;verticalAlign=top;spacingLeft=4;spacingRight=4;overflow=hidden;rotatable=0;points=[[0,0.5],[1,0.5]];portConstraint=eastwest;" parent="S2Abmo9_S_xprCspmIsj-6" vertex="1">
          <mxGeometry y="52" width="220" height="26" as="geometry" />
        </mxCell>
        <mxCell id="S2Abmo9_S_xprCspmIsj-8" value="" style="line;strokeWidth=1;fillColor=none;align=left;verticalAlign=middle;spacingTop=-1;spacingLeft=3;spacingRight=3;rotatable=0;labelPosition=right;points=[];portConstraint=eastwest;" parent="S2Abmo9_S_xprCspmIsj-6" vertex="1">
          <mxGeometry y="78" width="220" height="8" as="geometry" />
        </mxCell>
        <mxCell id="S2Abmo9_S_xprCspmIsj-9" value="+ operator=()" style="text;strokeColor=none;fillColor=none;align=left;verticalAlign=top;spacingLeft=4;spacingRight=4;overflow=hidden;rotatable=0;points=[[0,0.5],[1,0.5]];portConstraint=eastwest;" parent="S2Abmo9_S_xprCspmIsj-6" vertex="1">
          <mxGeometry y="86" width="220" height="26" as="geometry" />
        </mxCell>
        <mxCell id="S2Abmo9_S_xprCspmIsj-24" value="+ reset(): void&#xa;" style="text;strokeColor=none;fillColor=none;align=left;verticalAlign=top;spacingLeft=4;spacingRight=4;overflow=hidden;rotatable=0;points=[[0,0.5],[1,0.5]];portConstraint=eastwest;" parent="S2Abmo9_S_xprCspmIsj-6" vertex="1">
          <mxGeometry y="112" width="220" height="26" as="geometry" />
        </mxCell>
        <mxCell id="S2Abmo9_S_xprCspmIsj-15" value="+ get(): element_type* &#xa;" style="text;strokeColor=#6c8ebf;fillColor=#dae8fc;align=left;verticalAlign=top;spacingLeft=4;spacingRight=4;overflow=hidden;rotatable=0;points=[[0,0.5],[1,0.5]];portConstraint=eastwest;" parent="S2Abmo9_S_xprCspmIsj-6" vertex="1">
          <mxGeometry y="138" width="220" height="26" as="geometry" />
        </mxCell>
        <mxCell id="S2Abmo9_S_xprCspmIsj-17" value="+ use_count(): long" style="text;strokeColor=#6c8ebf;fillColor=#dae8fc;align=left;verticalAlign=top;spacingLeft=4;spacingRight=4;overflow=hidden;rotatable=0;points=[[0,0.5],[1,0.5]];portConstraint=eastwest;" parent="S2Abmo9_S_xprCspmIsj-6" vertex="1">
          <mxGeometry y="164" width="220" height="26" as="geometry" />
        </mxCell>
        <mxCell id="S2Abmo9_S_xprCspmIsj-16" value="+ unique(): bool" style="text;strokeColor=none;fillColor=none;align=left;verticalAlign=top;spacingLeft=4;spacingRight=4;overflow=hidden;rotatable=0;points=[[0,0.5],[1,0.5]];portConstraint=eastwest;" parent="S2Abmo9_S_xprCspmIsj-6" vertex="1">
          <mxGeometry y="190" width="220" height="26" as="geometry" />
        </mxCell>
        <mxCell id="S2Abmo9_S_xprCspmIsj-18" value="+ swap(__shared_ptr&amp;): void" style="text;strokeColor=none;fillColor=none;align=left;verticalAlign=top;spacingLeft=4;spacingRight=4;overflow=hidden;rotatable=0;points=[[0,0.5],[1,0.5]];portConstraint=eastwest;" parent="S2Abmo9_S_xprCspmIsj-6" vertex="1">
          <mxGeometry y="216" width="220" height="26" as="geometry" />
        </mxCell>
        <mxCell id="S2Abmo9_S_xprCspmIsj-19" value="+ owner_before(__shared_ptr&amp;): bool" style="text;strokeColor=none;fillColor=none;align=left;verticalAlign=top;spacingLeft=4;spacingRight=4;overflow=hidden;rotatable=0;points=[[0,0.5],[1,0.5]];portConstraint=eastwest;" parent="S2Abmo9_S_xprCspmIsj-6" vertex="1">
          <mxGeometry y="242" width="220" height="26" as="geometry" />
        </mxCell>
        <mxCell id="S2Abmo9_S_xprCspmIsj-122" value="+ owner_before(__weak_ptr&amp;): bool" style="text;strokeColor=none;fillColor=none;align=left;verticalAlign=top;spacingLeft=4;spacingRight=4;overflow=hidden;rotatable=0;points=[[0,0.5],[1,0.5]];portConstraint=eastwest;" parent="S2Abmo9_S_xprCspmIsj-6" vertex="1">
          <mxGeometry y="268" width="220" height="26" as="geometry" />
        </mxCell>
        <mxCell id="S2Abmo9_S_xprCspmIsj-23" value="" style="endArrow=block;endSize=16;endFill=0;html=1;rounded=0;exitX=0.5;exitY=0;exitDx=0;exitDy=0;" parent="1" source="S2Abmo9_S_xprCspmIsj-2" target="S2Abmo9_S_xprCspmIsj-122" edge="1">
          <mxGeometry width="160" relative="1" as="geometry">
            <mxPoint x="230" y="730" as="sourcePoint" />
            <mxPoint x="230" y="700" as="targetPoint" />
          </mxGeometry>
        </mxCell>
        <mxCell id="S2Abmo9_S_xprCspmIsj-25" value="__shared_ptr_access" style="swimlane;fontStyle=1;align=center;verticalAlign=top;childLayout=stackLayout;horizontal=1;startSize=26;horizontalStack=0;resizeParent=1;resizeParentMax=0;resizeLast=0;collapsible=1;marginBottom=0;" parent="1" vertex="1">
          <mxGeometry x="130" y="220" width="200" height="112" as="geometry" />
        </mxCell>
        <mxCell id="S2Abmo9_S_xprCspmIsj-26" value="- _M_get() : element_type*" style="text;strokeColor=none;fillColor=none;align=left;verticalAlign=top;spacingLeft=4;spacingRight=4;overflow=hidden;rotatable=0;points=[[0,0.5],[1,0.5]];portConstraint=eastwest;" parent="S2Abmo9_S_xprCspmIsj-25" vertex="1">
          <mxGeometry y="26" width="200" height="26" as="geometry" />
        </mxCell>
        <mxCell id="S2Abmo9_S_xprCspmIsj-28" value="" style="line;strokeWidth=1;fillColor=none;align=left;verticalAlign=middle;spacingTop=-1;spacingLeft=3;spacingRight=3;rotatable=0;labelPosition=right;points=[];portConstraint=eastwest;" parent="S2Abmo9_S_xprCspmIsj-25" vertex="1">
          <mxGeometry y="52" width="200" height="8" as="geometry" />
        </mxCell>
        <mxCell id="S2Abmo9_S_xprCspmIsj-29" value="+ operator*(): element_type&amp;" style="text;strokeColor=none;fillColor=none;align=left;verticalAlign=top;spacingLeft=4;spacingRight=4;overflow=hidden;rotatable=0;points=[[0,0.5],[1,0.5]];portConstraint=eastwest;" parent="S2Abmo9_S_xprCspmIsj-25" vertex="1">
          <mxGeometry y="60" width="200" height="26" as="geometry" />
        </mxCell>
        <mxCell id="S2Abmo9_S_xprCspmIsj-35" value="+ operator-&gt;(): element_type*" style="text;strokeColor=none;fillColor=none;align=left;verticalAlign=top;spacingLeft=4;spacingRight=4;overflow=hidden;rotatable=0;points=[[0,0.5],[1,0.5]];portConstraint=eastwest;" parent="S2Abmo9_S_xprCspmIsj-25" vertex="1">
          <mxGeometry y="86" width="200" height="26" as="geometry" />
        </mxCell>
        <mxCell id="S2Abmo9_S_xprCspmIsj-37" value="" style="endArrow=block;endSize=16;endFill=0;html=1;rounded=0;exitX=0.5;exitY=0;exitDx=0;exitDy=0;" parent="1" source="S2Abmo9_S_xprCspmIsj-6" target="S2Abmo9_S_xprCspmIsj-35" edge="1">
          <mxGeometry width="160" relative="1" as="geometry">
            <mxPoint x="250" y="352" as="sourcePoint" />
            <mxPoint x="250" y="290" as="targetPoint" />
          </mxGeometry>
        </mxCell>
        <mxCell id="S2Abmo9_S_xprCspmIsj-38" value="__shared_count" style="swimlane;fontStyle=1;align=center;verticalAlign=top;childLayout=stackLayout;horizontal=1;startSize=26;horizontalStack=0;resizeParent=1;resizeParentMax=0;resizeLast=0;collapsible=1;marginBottom=0;" parent="1" vertex="1">
          <mxGeometry x="420" y="220" width="280" height="242" as="geometry" />
        </mxCell>
        <mxCell id="S2Abmo9_S_xprCspmIsj-39" value="- _M_pi: _Sp_counted_base*" style="text;strokeColor=none;fillColor=none;align=left;verticalAlign=top;spacingLeft=4;spacingRight=4;overflow=hidden;rotatable=0;points=[[0,0.5],[1,0.5]];portConstraint=eastwest;" parent="S2Abmo9_S_xprCspmIsj-38" vertex="1">
          <mxGeometry y="26" width="280" height="26" as="geometry" />
        </mxCell>
        <mxCell id="S2Abmo9_S_xprCspmIsj-41" value="" style="line;strokeWidth=1;fillColor=none;align=left;verticalAlign=middle;spacingTop=-1;spacingLeft=3;spacingRight=3;rotatable=0;labelPosition=right;points=[];portConstraint=eastwest;" parent="S2Abmo9_S_xprCspmIsj-38" vertex="1">
          <mxGeometry y="52" width="280" height="8" as="geometry" />
        </mxCell>
        <mxCell id="S2Abmo9_S_xprCspmIsj-49" value="+ _M_swap(__shared_count&amp;): void" style="text;strokeColor=none;fillColor=none;align=left;verticalAlign=top;spacingLeft=4;spacingRight=4;overflow=hidden;rotatable=0;points=[[0,0.5],[1,0.5]];portConstraint=eastwest;" parent="S2Abmo9_S_xprCspmIsj-38" vertex="1">
          <mxGeometry y="60" width="280" height="26" as="geometry" />
        </mxCell>
        <mxCell id="S2Abmo9_S_xprCspmIsj-50" value="+ _M_get_use_count() : long" style="text;strokeColor=none;fillColor=none;align=left;verticalAlign=top;spacingLeft=4;spacingRight=4;overflow=hidden;rotatable=0;points=[[0,0.5],[1,0.5]];portConstraint=eastwest;" parent="S2Abmo9_S_xprCspmIsj-38" vertex="1">
          <mxGeometry y="86" width="280" height="26" as="geometry" />
        </mxCell>
        <mxCell id="S2Abmo9_S_xprCspmIsj-51" value="+ _M_unique(): bool" style="text;strokeColor=none;fillColor=none;align=left;verticalAlign=top;spacingLeft=4;spacingRight=4;overflow=hidden;rotatable=0;points=[[0,0.5],[1,0.5]];portConstraint=eastwest;" parent="S2Abmo9_S_xprCspmIsj-38" vertex="1">
          <mxGeometry y="112" width="280" height="26" as="geometry" />
        </mxCell>
        <mxCell id="S2Abmo9_S_xprCspmIsj-52" value="+ _M_get_deleter(type_info&amp;): void*" style="text;strokeColor=none;fillColor=none;align=left;verticalAlign=top;spacingLeft=4;spacingRight=4;overflow=hidden;rotatable=0;points=[[0,0.5],[1,0.5]];portConstraint=eastwest;" parent="S2Abmo9_S_xprCspmIsj-38" vertex="1">
          <mxGeometry y="138" width="280" height="26" as="geometry" />
        </mxCell>
        <mxCell id="S2Abmo9_S_xprCspmIsj-53" value="+ _M_less(__shared_count&amp;): bool" style="text;strokeColor=none;fillColor=none;align=left;verticalAlign=top;spacingLeft=4;spacingRight=4;overflow=hidden;rotatable=0;points=[[0,0.5],[1,0.5]];portConstraint=eastwest;" parent="S2Abmo9_S_xprCspmIsj-38" vertex="1">
          <mxGeometry y="164" width="280" height="26" as="geometry" />
        </mxCell>
        <mxCell id="S2Abmo9_S_xprCspmIsj-54" value="+ _M_less(__weak_count&amp;): bool" style="text;strokeColor=none;fillColor=none;align=left;verticalAlign=top;spacingLeft=4;spacingRight=4;overflow=hidden;rotatable=0;points=[[0,0.5],[1,0.5]];portConstraint=eastwest;" parent="S2Abmo9_S_xprCspmIsj-38" vertex="1">
          <mxGeometry y="190" width="280" height="26" as="geometry" />
        </mxCell>
        <mxCell id="S2Abmo9_S_xprCspmIsj-130" value="+ operator=(__shared_count&amp;): __shared_count&amp;" style="text;strokeColor=none;fillColor=none;align=left;verticalAlign=top;spacingLeft=4;spacingRight=4;overflow=hidden;rotatable=0;points=[[0,0.5],[1,0.5]];portConstraint=eastwest;" parent="S2Abmo9_S_xprCspmIsj-38" vertex="1">
          <mxGeometry y="216" width="280" height="26" as="geometry" />
        </mxCell>
        <mxCell id="S2Abmo9_S_xprCspmIsj-55" value="" style="endArrow=open;html=1;endSize=12;startArrow=diamondThin;startSize=14;startFill=0;edgeStyle=orthogonalEdgeStyle;rounded=0;exitX=1;exitY=0.5;exitDx=0;exitDy=0;entryX=0;entryY=0.5;entryDx=0;entryDy=0;" parent="1" source="S2Abmo9_S_xprCspmIsj-14" target="S2Abmo9_S_xprCspmIsj-39" edge="1">
          <mxGeometry relative="1" as="geometry">
            <mxPoint x="330" y="240" as="sourcePoint" />
            <mxPoint x="490" y="240" as="targetPoint" />
          </mxGeometry>
        </mxCell>
        <mxCell id="S2Abmo9_S_xprCspmIsj-58" value="_Sp_counted_base" style="swimlane;fontStyle=1;align=center;verticalAlign=top;childLayout=stackLayout;horizontal=1;startSize=26;horizontalStack=0;resizeParent=1;resizeParentMax=0;resizeLast=0;collapsible=1;marginBottom=0;" parent="1" vertex="1">
          <mxGeometry x="770" y="140" width="250" height="320" as="geometry" />
        </mxCell>
        <mxCell id="S2Abmo9_S_xprCspmIsj-59" value="- _M_use_count: _Atomic_word" style="text;strokeColor=#d6b656;fillColor=#fff2cc;align=left;verticalAlign=top;spacingLeft=4;spacingRight=4;overflow=hidden;rotatable=0;points=[[0,0.5],[1,0.5]];portConstraint=eastwest;" parent="S2Abmo9_S_xprCspmIsj-58" vertex="1">
          <mxGeometry y="26" width="250" height="26" as="geometry" />
        </mxCell>
        <mxCell id="S2Abmo9_S_xprCspmIsj-67" value="- _M_weak_count: _Atomic_word" style="text;strokeColor=#d6b656;fillColor=#fff2cc;align=left;verticalAlign=top;spacingLeft=4;spacingRight=4;overflow=hidden;rotatable=0;points=[[0,0.5],[1,0.5]];portConstraint=eastwest;" parent="S2Abmo9_S_xprCspmIsj-58" vertex="1">
          <mxGeometry y="52" width="250" height="26" as="geometry" />
        </mxCell>
        <mxCell id="S2Abmo9_S_xprCspmIsj-60" value="" style="line;strokeWidth=1;fillColor=none;align=left;verticalAlign=middle;spacingTop=-1;spacingLeft=3;spacingRight=3;rotatable=0;labelPosition=right;points=[];portConstraint=eastwest;" parent="S2Abmo9_S_xprCspmIsj-58" vertex="1">
          <mxGeometry y="78" width="250" height="8" as="geometry" />
        </mxCell>
        <mxCell id="S2Abmo9_S_xprCspmIsj-69" value="+ _M_get_deleter(type_info&amp;): void*" style="text;strokeColor=none;fillColor=none;align=left;verticalAlign=top;spacingLeft=4;spacingRight=4;overflow=hidden;rotatable=0;points=[[0,0.5],[1,0.5]];portConstraint=eastwest;fontStyle=2" parent="S2Abmo9_S_xprCspmIsj-58" vertex="1">
          <mxGeometry y="86" width="250" height="26" as="geometry" />
        </mxCell>
        <mxCell id="S2Abmo9_S_xprCspmIsj-66" value="+ _M_dispose(): void" style="text;strokeColor=#d6b656;fillColor=#fff2cc;align=left;verticalAlign=top;spacingLeft=4;spacingRight=4;overflow=hidden;rotatable=0;points=[[0,0.5],[1,0.5]];portConstraint=eastwest;fontStyle=2" parent="S2Abmo9_S_xprCspmIsj-58" vertex="1">
          <mxGeometry y="112" width="250" height="26" as="geometry" />
        </mxCell>
        <mxCell id="S2Abmo9_S_xprCspmIsj-68" value="+ _M_destroy(): void" style="text;strokeColor=#d6b656;fillColor=#fff2cc;align=left;verticalAlign=top;spacingLeft=4;spacingRight=4;overflow=hidden;rotatable=0;points=[[0,0.5],[1,0.5]];portConstraint=eastwest;fontStyle=0" parent="S2Abmo9_S_xprCspmIsj-58" vertex="1">
          <mxGeometry y="138" width="250" height="26" as="geometry" />
        </mxCell>
        <mxCell id="S2Abmo9_S_xprCspmIsj-72" value="+ _M_release(): void" style="text;strokeColor=#d6b656;fillColor=#fff2cc;align=left;verticalAlign=top;spacingLeft=4;spacingRight=4;overflow=hidden;rotatable=0;points=[[0,0.5],[1,0.5]];portConstraint=eastwest;fontStyle=0" parent="S2Abmo9_S_xprCspmIsj-58" vertex="1">
          <mxGeometry y="164" width="250" height="26" as="geometry" />
        </mxCell>
        <mxCell id="S2Abmo9_S_xprCspmIsj-70" value="+ _M_add_ref_copy(): void" style="text;strokeColor=none;fillColor=none;align=left;verticalAlign=top;spacingLeft=4;spacingRight=4;overflow=hidden;rotatable=0;points=[[0,0.5],[1,0.5]];portConstraint=eastwest;fontStyle=0" parent="S2Abmo9_S_xprCspmIsj-58" vertex="1">
          <mxGeometry y="190" width="250" height="26" as="geometry" />
        </mxCell>
        <mxCell id="S2Abmo9_S_xprCspmIsj-71" value="+ _M_add_ref_lock(): void" style="text;strokeColor=none;fillColor=none;align=left;verticalAlign=top;spacingLeft=4;spacingRight=4;overflow=hidden;rotatable=0;points=[[0,0.5],[1,0.5]];portConstraint=eastwest;fontStyle=0" parent="S2Abmo9_S_xprCspmIsj-58" vertex="1">
          <mxGeometry y="216" width="250" height="26" as="geometry" />
        </mxCell>
        <mxCell id="S2Abmo9_S_xprCspmIsj-73" value="+ _M_weak_add_ref(): void" style="text;strokeColor=none;fillColor=none;align=left;verticalAlign=top;spacingLeft=4;spacingRight=4;overflow=hidden;rotatable=0;points=[[0,0.5],[1,0.5]];portConstraint=eastwest;fontStyle=0" parent="S2Abmo9_S_xprCspmIsj-58" vertex="1">
          <mxGeometry y="242" width="250" height="26" as="geometry" />
        </mxCell>
        <mxCell id="S2Abmo9_S_xprCspmIsj-74" value="+ _M_weak_release(): void" style="text;strokeColor=none;fillColor=none;align=left;verticalAlign=top;spacingLeft=4;spacingRight=4;overflow=hidden;rotatable=0;points=[[0,0.5],[1,0.5]];portConstraint=eastwest;fontStyle=0" parent="S2Abmo9_S_xprCspmIsj-58" vertex="1">
          <mxGeometry y="268" width="250" height="26" as="geometry" />
        </mxCell>
        <mxCell id="S2Abmo9_S_xprCspmIsj-75" value="+ _M_get_use_count(): long" style="text;strokeColor=none;fillColor=none;align=left;verticalAlign=top;spacingLeft=4;spacingRight=4;overflow=hidden;rotatable=0;points=[[0,0.5],[1,0.5]];portConstraint=eastwest;fontStyle=0" parent="S2Abmo9_S_xprCspmIsj-58" vertex="1">
          <mxGeometry y="294" width="250" height="26" as="geometry" />
        </mxCell>
        <mxCell id="S2Abmo9_S_xprCspmIsj-76" value="" style="endArrow=open;html=1;endSize=12;startArrow=diamondThin;startSize=14;startFill=0;edgeStyle=orthogonalEdgeStyle;rounded=0;exitX=1;exitY=0.5;exitDx=0;exitDy=0;entryX=0;entryY=0.5;entryDx=0;entryDy=0;" parent="1" source="S2Abmo9_S_xprCspmIsj-39" target="S2Abmo9_S_xprCspmIsj-59" edge="1">
          <mxGeometry relative="1" as="geometry">
            <mxPoint x="360" y="475" as="sourcePoint" />
            <mxPoint x="450" y="269" as="targetPoint" />
          </mxGeometry>
        </mxCell>
        <mxCell id="S2Abmo9_S_xprCspmIsj-77" value="_Sp_counted_ptr" style="swimlane;fontStyle=1;align=center;verticalAlign=top;childLayout=stackLayout;horizontal=1;startSize=26;horizontalStack=0;resizeParent=1;resizeParentMax=0;resizeLast=0;collapsible=1;marginBottom=0;" parent="1" vertex="1">
          <mxGeometry x="737.5" y="550" width="315" height="164" as="geometry" />
        </mxCell>
        <mxCell id="S2Abmo9_S_xprCspmIsj-78" value="- _M_ptr: _Ptr" style="text;strokeColor=none;fillColor=none;align=left;verticalAlign=top;spacingLeft=4;spacingRight=4;overflow=hidden;rotatable=0;points=[[0,0.5],[1,0.5]];portConstraint=eastwest;" parent="S2Abmo9_S_xprCspmIsj-77" vertex="1">
          <mxGeometry y="26" width="315" height="26" as="geometry" />
        </mxCell>
        <mxCell id="S2Abmo9_S_xprCspmIsj-80" value="" style="line;strokeWidth=1;fillColor=none;align=left;verticalAlign=middle;spacingTop=-1;spacingLeft=3;spacingRight=3;rotatable=0;labelPosition=right;points=[];portConstraint=eastwest;" parent="S2Abmo9_S_xprCspmIsj-77" vertex="1">
          <mxGeometry y="52" width="315" height="8" as="geometry" />
        </mxCell>
        <mxCell id="S2Abmo9_S_xprCspmIsj-81" value="+ _M_dispose(): void" style="text;strokeColor=none;fillColor=none;align=left;verticalAlign=top;spacingLeft=4;spacingRight=4;overflow=hidden;rotatable=0;points=[[0,0.5],[1,0.5]];portConstraint=eastwest;fontStyle=2" parent="S2Abmo9_S_xprCspmIsj-77" vertex="1">
          <mxGeometry y="60" width="315" height="26" as="geometry" />
        </mxCell>
        <mxCell id="S2Abmo9_S_xprCspmIsj-82" value="+ _M_get_deleter(type_info&amp;): void*" style="text;strokeColor=none;fillColor=none;align=left;verticalAlign=top;spacingLeft=4;spacingRight=4;overflow=hidden;rotatable=0;points=[[0,0.5],[1,0.5]];portConstraint=eastwest;fontStyle=2" parent="S2Abmo9_S_xprCspmIsj-77" vertex="1">
          <mxGeometry y="86" width="315" height="26" as="geometry" />
        </mxCell>
        <mxCell id="S2Abmo9_S_xprCspmIsj-83" value="+ _M_destroy(): void" style="text;strokeColor=none;fillColor=none;align=left;verticalAlign=top;spacingLeft=4;spacingRight=4;overflow=hidden;rotatable=0;points=[[0,0.5],[1,0.5]];portConstraint=eastwest;fontStyle=0" parent="S2Abmo9_S_xprCspmIsj-77" vertex="1">
          <mxGeometry y="112" width="315" height="26" as="geometry" />
        </mxCell>
        <mxCell id="S2Abmo9_S_xprCspmIsj-89" value="+ operator=(__Sp_counted_ptr&amp;): __Sp_counted_ptr&amp;" style="text;strokeColor=none;fillColor=none;align=left;verticalAlign=top;spacingLeft=4;spacingRight=4;overflow=hidden;rotatable=0;points=[[0,0.5],[1,0.5]];portConstraint=eastwest;fontStyle=0" parent="S2Abmo9_S_xprCspmIsj-77" vertex="1">
          <mxGeometry y="138" width="315" height="26" as="geometry" />
        </mxCell>
        <mxCell id="S2Abmo9_S_xprCspmIsj-90" value="" style="endArrow=block;endSize=16;endFill=0;html=1;rounded=0;exitX=0.5;exitY=0;exitDx=0;exitDy=0;" parent="1" source="S2Abmo9_S_xprCspmIsj-77" target="S2Abmo9_S_xprCspmIsj-75" edge="1">
          <mxGeometry width="160" relative="1" as="geometry">
            <mxPoint x="900" y="612" as="sourcePoint" />
            <mxPoint x="895" y="540" as="targetPoint" />
          </mxGeometry>
        </mxCell>
        <mxCell id="S2Abmo9_S_xprCspmIsj-93" value="__weak_count" style="swimlane;fontStyle=1;align=center;verticalAlign=top;childLayout=stackLayout;horizontal=1;startSize=26;horizontalStack=0;resizeParent=1;resizeParentMax=0;resizeLast=0;collapsible=1;marginBottom=0;" parent="1" vertex="1">
          <mxGeometry x="1110" y="218" width="272" height="242" as="geometry" />
        </mxCell>
        <mxCell id="S2Abmo9_S_xprCspmIsj-94" value="- _M_pi: _Sp_counted_base" style="text;strokeColor=none;fillColor=none;align=left;verticalAlign=top;spacingLeft=4;spacingRight=4;overflow=hidden;rotatable=0;points=[[0,0.5],[1,0.5]];portConstraint=eastwest;" parent="S2Abmo9_S_xprCspmIsj-93" vertex="1">
          <mxGeometry y="26" width="272" height="26" as="geometry" />
        </mxCell>
        <mxCell id="S2Abmo9_S_xprCspmIsj-95" value="" style="line;strokeWidth=1;fillColor=none;align=left;verticalAlign=middle;spacingTop=-1;spacingLeft=3;spacingRight=3;rotatable=0;labelPosition=right;points=[];portConstraint=eastwest;" parent="S2Abmo9_S_xprCspmIsj-93" vertex="1">
          <mxGeometry y="52" width="272" height="8" as="geometry" />
        </mxCell>
        <mxCell id="S2Abmo9_S_xprCspmIsj-96" value="+ _M_swap(__weak_count&amp;): void" style="text;strokeColor=none;fillColor=none;align=left;verticalAlign=top;spacingLeft=4;spacingRight=4;overflow=hidden;rotatable=0;points=[[0,0.5],[1,0.5]];portConstraint=eastwest;" parent="S2Abmo9_S_xprCspmIsj-93" vertex="1">
          <mxGeometry y="60" width="272" height="26" as="geometry" />
        </mxCell>
        <mxCell id="S2Abmo9_S_xprCspmIsj-97" value="+ _M_get_use_count() : long" style="text;strokeColor=none;fillColor=none;align=left;verticalAlign=top;spacingLeft=4;spacingRight=4;overflow=hidden;rotatable=0;points=[[0,0.5],[1,0.5]];portConstraint=eastwest;" parent="S2Abmo9_S_xprCspmIsj-93" vertex="1">
          <mxGeometry y="86" width="272" height="26" as="geometry" />
        </mxCell>
        <mxCell id="S2Abmo9_S_xprCspmIsj-100" value="+ _M_less(__shared_count&amp;): bool" style="text;strokeColor=none;fillColor=none;align=left;verticalAlign=top;spacingLeft=4;spacingRight=4;overflow=hidden;rotatable=0;points=[[0,0.5],[1,0.5]];portConstraint=eastwest;" parent="S2Abmo9_S_xprCspmIsj-93" vertex="1">
          <mxGeometry y="112" width="272" height="26" as="geometry" />
        </mxCell>
        <mxCell id="S2Abmo9_S_xprCspmIsj-101" value="+ _M_less(__weak_count&amp;): bool" style="text;strokeColor=none;fillColor=none;align=left;verticalAlign=top;spacingLeft=4;spacingRight=4;overflow=hidden;rotatable=0;points=[[0,0.5],[1,0.5]];portConstraint=eastwest;" parent="S2Abmo9_S_xprCspmIsj-93" vertex="1">
          <mxGeometry y="138" width="272" height="26" as="geometry" />
        </mxCell>
        <mxCell id="S2Abmo9_S_xprCspmIsj-102" value="+ operator=(__shared_count&amp;): __weak_count&amp;" style="text;strokeColor=none;fillColor=none;align=left;verticalAlign=top;spacingLeft=4;spacingRight=4;overflow=hidden;rotatable=0;points=[[0,0.5],[1,0.5]];portConstraint=eastwest;" parent="S2Abmo9_S_xprCspmIsj-93" vertex="1">
          <mxGeometry y="164" width="272" height="26" as="geometry" />
        </mxCell>
        <mxCell id="S2Abmo9_S_xprCspmIsj-103" value="+ operator=(__weak_count&amp;): __weak_count&amp;" style="text;strokeColor=none;fillColor=none;align=left;verticalAlign=top;spacingLeft=4;spacingRight=4;overflow=hidden;rotatable=0;points=[[0,0.5],[1,0.5]];portConstraint=eastwest;" parent="S2Abmo9_S_xprCspmIsj-93" vertex="1">
          <mxGeometry y="190" width="272" height="26" as="geometry" />
        </mxCell>
        <mxCell id="S2Abmo9_S_xprCspmIsj-104" value="+ operator=(__weak_count&amp;&amp;): __weak_count&amp;" style="text;strokeColor=none;fillColor=none;align=left;verticalAlign=top;spacingLeft=4;spacingRight=4;overflow=hidden;rotatable=0;points=[[0,0.5],[1,0.5]];portConstraint=eastwest;" parent="S2Abmo9_S_xprCspmIsj-93" vertex="1">
          <mxGeometry y="216" width="272" height="26" as="geometry" />
        </mxCell>
        <mxCell id="S2Abmo9_S_xprCspmIsj-105" value="" style="endArrow=open;html=1;endSize=12;startArrow=diamondThin;startSize=14;startFill=0;edgeStyle=orthogonalEdgeStyle;rounded=0;exitX=0;exitY=0.5;exitDx=0;exitDy=0;entryX=1;entryY=0.5;entryDx=0;entryDy=0;" parent="1" source="S2Abmo9_S_xprCspmIsj-94" target="S2Abmo9_S_xprCspmIsj-59" edge="1">
          <mxGeometry relative="1" as="geometry">
            <mxPoint x="700" y="269" as="sourcePoint" />
            <mxPoint x="780" y="189" as="targetPoint" />
          </mxGeometry>
        </mxCell>
        <mxCell id="S2Abmo9_S_xprCspmIsj-106" value="__weak_ptr" style="swimlane;fontStyle=1;align=center;verticalAlign=top;childLayout=stackLayout;horizontal=1;startSize=26;horizontalStack=0;resizeParent=1;resizeParentMax=0;resizeLast=0;collapsible=1;marginBottom=0;" parent="1" vertex="1">
          <mxGeometry x="1470" y="360" width="230" height="320" as="geometry" />
        </mxCell>
        <mxCell id="S2Abmo9_S_xprCspmIsj-107" value="- _M_ptr: element_type*" style="text;strokeColor=none;fillColor=none;align=left;verticalAlign=top;spacingLeft=4;spacingRight=4;overflow=hidden;rotatable=0;points=[[0,0.5],[1,0.5]];portConstraint=eastwest;" parent="S2Abmo9_S_xprCspmIsj-106" vertex="1">
          <mxGeometry y="26" width="230" height="26" as="geometry" />
        </mxCell>
        <mxCell id="S2Abmo9_S_xprCspmIsj-108" value="- _M_refcount: __weak_count" style="text;strokeColor=none;fillColor=none;align=left;verticalAlign=top;spacingLeft=4;spacingRight=4;overflow=hidden;rotatable=0;points=[[0,0.5],[1,0.5]];portConstraint=eastwest;" parent="S2Abmo9_S_xprCspmIsj-106" vertex="1">
          <mxGeometry y="52" width="230" height="26" as="geometry" />
        </mxCell>
        <mxCell id="S2Abmo9_S_xprCspmIsj-109" value="" style="line;strokeWidth=1;fillColor=none;align=left;verticalAlign=middle;spacingTop=-1;spacingLeft=3;spacingRight=3;rotatable=0;labelPosition=right;points=[];portConstraint=eastwest;" parent="S2Abmo9_S_xprCspmIsj-106" vertex="1">
          <mxGeometry y="78" width="230" height="8" as="geometry" />
        </mxCell>
        <mxCell id="S2Abmo9_S_xprCspmIsj-110" value="+ operator=()" style="text;strokeColor=none;fillColor=none;align=left;verticalAlign=top;spacingLeft=4;spacingRight=4;overflow=hidden;rotatable=0;points=[[0,0.5],[1,0.5]];portConstraint=eastwest;" parent="S2Abmo9_S_xprCspmIsj-106" vertex="1">
          <mxGeometry y="86" width="230" height="26" as="geometry" />
        </mxCell>
        <mxCell id="S2Abmo9_S_xprCspmIsj-111" value="+ lock(): __shared_ptr" style="text;strokeColor=#6c8ebf;fillColor=#dae8fc;align=left;verticalAlign=top;spacingLeft=4;spacingRight=4;overflow=hidden;rotatable=0;points=[[0,0.5],[1,0.5]];portConstraint=eastwest;" parent="S2Abmo9_S_xprCspmIsj-106" vertex="1">
          <mxGeometry y="112" width="230" height="26" as="geometry" />
        </mxCell>
        <mxCell id="S2Abmo9_S_xprCspmIsj-114" value="+ use_count(): long" style="text;strokeColor=#6c8ebf;fillColor=#dae8fc;align=left;verticalAlign=top;spacingLeft=4;spacingRight=4;overflow=hidden;rotatable=0;points=[[0,0.5],[1,0.5]];portConstraint=eastwest;" parent="S2Abmo9_S_xprCspmIsj-106" vertex="1">
          <mxGeometry y="138" width="230" height="26" as="geometry" />
        </mxCell>
        <mxCell id="S2Abmo9_S_xprCspmIsj-119" value="+ reset(): void" style="text;strokeColor=none;fillColor=none;align=left;verticalAlign=top;spacingLeft=4;spacingRight=4;overflow=hidden;rotatable=0;points=[[0,0.5],[1,0.5]];portConstraint=eastwest;" parent="S2Abmo9_S_xprCspmIsj-106" vertex="1">
          <mxGeometry y="164" width="230" height="26" as="geometry" />
        </mxCell>
        <mxCell id="S2Abmo9_S_xprCspmIsj-120" value="+ swap(__weak_ptr&amp;): void" style="text;strokeColor=none;fillColor=none;align=left;verticalAlign=top;spacingLeft=4;spacingRight=4;overflow=hidden;rotatable=0;points=[[0,0.5],[1,0.5]];portConstraint=eastwest;" parent="S2Abmo9_S_xprCspmIsj-106" vertex="1">
          <mxGeometry y="190" width="230" height="26" as="geometry" />
        </mxCell>
        <mxCell id="S2Abmo9_S_xprCspmIsj-117" value="+ expired(): bool" style="text;strokeColor=none;fillColor=none;align=left;verticalAlign=top;spacingLeft=4;spacingRight=4;overflow=hidden;rotatable=0;points=[[0,0.5],[1,0.5]];portConstraint=eastwest;" parent="S2Abmo9_S_xprCspmIsj-106" vertex="1">
          <mxGeometry y="216" width="230" height="26" as="geometry" />
        </mxCell>
        <mxCell id="S2Abmo9_S_xprCspmIsj-116" value="+ owner_before(__shared_ptr&amp;): bool" style="text;strokeColor=none;fillColor=none;align=left;verticalAlign=top;spacingLeft=4;spacingRight=4;overflow=hidden;rotatable=0;points=[[0,0.5],[1,0.5]];portConstraint=eastwest;" parent="S2Abmo9_S_xprCspmIsj-106" vertex="1">
          <mxGeometry y="242" width="230" height="26" as="geometry" />
        </mxCell>
        <mxCell id="S2Abmo9_S_xprCspmIsj-118" value="+ owner_before(__weak_ptr&amp;): bool" style="text;strokeColor=none;fillColor=none;align=left;verticalAlign=top;spacingLeft=4;spacingRight=4;overflow=hidden;rotatable=0;points=[[0,0.5],[1,0.5]];portConstraint=eastwest;" parent="S2Abmo9_S_xprCspmIsj-106" vertex="1">
          <mxGeometry y="268" width="230" height="26" as="geometry" />
        </mxCell>
        <mxCell id="S2Abmo9_S_xprCspmIsj-121" value="- _M_assign(_Tp*, __shared_count&amp;): void" style="text;strokeColor=none;fillColor=none;align=left;verticalAlign=top;spacingLeft=4;spacingRight=4;overflow=hidden;rotatable=0;points=[[0,0.5],[1,0.5]];portConstraint=eastwest;" parent="S2Abmo9_S_xprCspmIsj-106" vertex="1">
          <mxGeometry y="294" width="230" height="26" as="geometry" />
        </mxCell>
        <mxCell id="S2Abmo9_S_xprCspmIsj-124" value="" style="endArrow=open;html=1;endSize=12;startArrow=diamondThin;startSize=14;startFill=0;edgeStyle=orthogonalEdgeStyle;rounded=0;exitX=0;exitY=0.5;exitDx=0;exitDy=0;entryX=1;entryY=0.5;entryDx=0;entryDy=0;" parent="1" source="S2Abmo9_S_xprCspmIsj-108" target="S2Abmo9_S_xprCspmIsj-94" edge="1">
          <mxGeometry relative="1" as="geometry">
            <mxPoint x="370" y="474.9999999999998" as="sourcePoint" />
            <mxPoint x="450" y="269" as="targetPoint" />
          </mxGeometry>
        </mxCell>
        <mxCell id="S2Abmo9_S_xprCspmIsj-125" value="weak_ptr" style="swimlane;fontStyle=1;childLayout=stackLayout;horizontal=1;startSize=26;fillColor=none;horizontalStack=0;resizeParent=1;resizeParentMax=0;resizeLast=0;collapsible=1;marginBottom=0;" parent="1" vertex="1">
          <mxGeometry x="1520" y="760" width="140" height="52" as="geometry" />
        </mxCell>
        <mxCell id="S2Abmo9_S_xprCspmIsj-126" value="" style="endArrow=block;endSize=16;endFill=0;html=1;rounded=0;exitX=0.5;exitY=0;exitDx=0;exitDy=0;entryX=0.523;entryY=0.973;entryDx=0;entryDy=0;entryPerimeter=0;" parent="1" source="S2Abmo9_S_xprCspmIsj-125" target="S2Abmo9_S_xprCspmIsj-121" edge="1">
          <mxGeometry width="160" relative="1" as="geometry">
            <mxPoint x="1584.41" y="751" as="sourcePoint" />
            <mxPoint x="1584.41" y="669.9999999999998" as="targetPoint" />
          </mxGeometry>
        </mxCell>
      </root>
    </mxGraphModel>
  </diagram>
</mxfile>
